<?xml version="1.0" encoding="UTF-8"?>
<svg xmlns="http://www.w3.org/2000/svg" xmlns:xlink="http://www.w3.org/1999/xlink" width="256pt" height="256pt" viewBox="0 0 256 256" version="1.1">
<g id="surface1">
<path style=" stroke:none;fill-rule:nonzero;fill:rgb(99.215686%,78.823529%,65.098039%);fill-opacity:1;" d="M 72 176 L 68 188 L 32 188 L 32 176 L 48 172 L 60 164 Z M 72 176 "/>
<path style=" stroke:none;fill-rule:nonzero;fill:rgb(3.921569%,43.529412%,63.529412%);fill-opacity:1;" d="M 176 188 L 148 188 L 124 156 L 108 132 L 96 152 L 72 176 L 60 164 L 94.851562 115.214844 C 98.082031 110.6875 103.300781 108 108.863281 108 C 113.433594 108 117.816406 109.816406 121.046875 113.046875 L 164 156 C 169.203125 161.203125 172.652344 167.902344 173.859375 175.160156 Z M 176 188 "/>
<path style=" stroke:none;fill-rule:nonzero;fill:rgb(99.215686%,78.823529%,65.098039%);fill-opacity:1;" d="M 208 72 L 196 60 L 192 72 L 196 82 L 196 92 L 208 92 Z M 208 72 "/>
<path style=" stroke:none;fill-rule:nonzero;fill:rgb(17.254902%,74.901961%,95.686275%);fill-opacity:1;" d="M 176 188 L 212.390625 144.996094 C 214.792969 142.15625 216.988281 139.148438 218.964844 136 L 200.664062 105.050781 L 186.105469 107.128906 C 182.28125 107.675781 178.96875 110.0625 177.242188 113.515625 C 176.425781 115.152344 176 116.953125 176 118.777344 L 176 136 L 164 156 C 169.203125 161.203125 172.652344 167.902344 173.859375 175.160156 Z M 176 188 "/>
<path style=" stroke:none;fill-rule:nonzero;fill:rgb(100%,38.431373%,40.784314%);fill-opacity:1;" d="M 20 188 L 236 188 C 240.417969 188 244 191.582031 244 196 C 244 200.417969 240.417969 204 236 204 L 20 204 C 15.582031 204 12 200.417969 12 196 C 12 191.582031 15.582031 188 20 188 Z M 20 188 "/>
<path style=" stroke:none;fill-rule:nonzero;fill:rgb(33.333333%,18.823529%,4.313725%);fill-opacity:1;" d="M 208 52 C 203.097656 52 198.613281 54.769531 196.421875 59.15625 L 196 60 L 208 72 L 212 52 Z M 208 52 "/>
<path style=" stroke:none;fill-rule:nonzero;fill:rgb(98.431373%,70.980392%,25.098039%);fill-opacity:1;" d="M 216 176 C 214.4375 176 213.019531 175.089844 212.367188 173.671875 C 211.714844 172.25 211.949219 170.582031 212.964844 169.398438 L 216.964844 164.730469 C 218.402344 163.050781 220.929688 162.859375 222.605469 164.296875 C 224.28125 165.734375 224.476562 168.257812 223.039062 169.9375 L 219.039062 174.601562 C 218.28125 175.492188 217.167969 176 216 176 Z M 216 176 "/>
<path style=" stroke:none;fill-rule:nonzero;fill:rgb(98.431373%,70.980392%,25.098039%);fill-opacity:1;" d="M 228 162 C 226.4375 162 225.019531 161.089844 224.367188 159.671875 C 223.714844 158.25 223.949219 156.582031 224.964844 155.398438 L 236.964844 141.398438 C 238.402344 139.71875 240.929688 139.523438 242.605469 140.964844 C 244.28125 142.402344 244.476562 144.925781 243.039062 146.601562 L 231.039062 160.601562 C 230.277344 161.492188 229.167969 162 228 162 Z M 228 162 "/>
<path style=" stroke:none;fill-rule:nonzero;fill:rgb(99.215686%,78.823529%,65.098039%);fill-opacity:1;" d="M 218.964844 136 C 221.136719 132.542969 223.035156 128.921875 224.640625 125.167969 L 228.277344 116.6875 C 230.691406 111.050781 231.195312 104.777344 229.707031 98.828125 L 224 76 L 222.25 70.085938 L 230.476562 78.160156 L 236 80 L 240 76 L 240 64 L 232 60 L 222.378906 50.378906 C 220.855469 48.855469 218.789062 48 216.636719 48 L 216.125 48 C 211.636719 48 208 51.636719 208 56.125 L 208 104 L 200.664062 105.050781 L 200 108 L 197.582031 117.667969 C 196.574219 121.699219 197.316406 125.972656 199.621094 129.429688 C 202.355469 133.535156 206.964844 136 211.894531 136 L 219 136 "/>
<path style=" stroke:none;fill-rule:nonzero;fill:rgb(96.470588%,73.333333%,57.254902%);fill-opacity:1;" d="M 208 92 L 204.054688 92 L 204.054688 68.054688 L 208 72 Z M 208 92 "/>
<path style=" stroke:none;fill-rule:nonzero;fill:rgb(0%,0%,0%);fill-opacity:1;" d="M 20 208 L 236 208 C 242.542969 207.992188 247.878906 202.75 248 196.207031 C 248.113281 189.492188 242.441406 184 235.726562 184 L 184.628906 184 L 215.445312 147.578125 C 217.863281 144.71875 220.082031 141.695312 222.089844 138.535156 C 222.304688 138.273438 226.703125 130.515625 228.320312 126.746094 L 231.953125 118.265625 C 234.703125 111.820312 235.277344 104.65625 233.589844 97.859375 L 229.648438 82.101562 L 234.738281 83.796875 C 236.175781 84.273438 237.757812 83.902344 238.832031 82.828125 L 242.832031 78.828125 C 243.582031 78.078125 244 77.0625 244 76 L 244 64 C 244 62.484375 243.144531 61.101562 241.789062 60.421875 L 234.371094 56.710938 L 225.207031 47.550781 C 222.933594 45.277344 219.851562 44 216.636719 44 L 216.125 44 C 212.679688 44 209.402344 45.464844 207.105469 48.03125 C 203.621094 48.203125 200.273438 49.453125 197.527344 51.605469 C 195.046875 53.605469 193.191406 56.269531 192.179688 59.289062 L 188.203125 70.734375 C 187.90625 71.632812 187.933594 72.605469 188.285156 73.484375 L 192 82.769531 L 192 92 C 192 94.210938 193.789062 96 196 96 L 204 96 L 204 100.53125 L 200.097656 101.089844 L 185.539062 103.167969 C 177.769531 104.277344 172 110.929688 172 118.777344 L 172 134.890625 L 163.207031 149.550781 L 123.875 110.21875 C 119.460938 105.804688 113.332031 103.558594 107.113281 104.074219 C 100.894531 104.585938 95.21875 107.8125 91.59375 112.890625 L 57.171875 161.078125 L 46.359375 168.289062 L 31.03125 172.121094 C 29.25 172.566406 28 174.164062 28 176 L 28 184 L 20.273438 184 C 13.558594 184 7.886719 189.492188 8 196.207031 C 8.121094 202.75 13.457031 207.992188 20 208 Z M 204 56.941406 L 204 62.34375 L 201.011719 59.355469 C 201.820312 58.339844 202.839844 57.515625 204 56.941406 Z M 200 88 L 200 82 C 200 81.492188 199.902344 80.988281 199.714844 80.515625 L 196.257812 71.875 L 197.746094 67.40625 L 203.996094 73.65625 L 203.996094 88 Z M 201.464844 118.636719 L 203.878906 108.96875 L 203.902344 108.878906 L 203.960938 108.617188 L 208.566406 107.960938 C 210.535156 107.679688 212 105.992188 212 104 L 212 56.125 C 212.003906 53.847656 213.847656 52.003906 216.125 52 L 216.636719 52 C 217.730469 51.996094 218.777344 52.429688 219.550781 53.207031 L 229.171875 62.828125 C 229.476562 63.132812 229.828125 63.386719 230.210938 63.578125 L 236 66.472656 L 236 74.34375 L 234.921875 75.421875 L 232.621094 74.65625 L 225.054688 67.230469 C 223.753906 65.953125 221.753906 65.71875 220.191406 66.65625 C 218.628906 67.59375 217.898438 69.46875 218.417969 71.21875 L 225.828125 99.800781 C 227.09375 104.902344 226.660156 110.277344 224.597656 115.113281 L 220.964844 123.59375 C 219.726562 126.480469 218.304688 129.289062 216.714844 132 L 211.894531 132 C 208.582031 132 205.457031 130.476562 203.417969 127.863281 C 201.382812 125.253906 200.660156 121.851562 201.460938 118.636719 Z M 179.429688 138.058594 C 179.804688 137.4375 180 136.726562 180 136 L 180 118.777344 C 180 114.914062 182.84375 111.636719 186.667969 111.085938 L 195.417969 109.835938 L 193.703125 116.699219 C 192.328125 122.195312 193.515625 128.023438 196.933594 132.546875 C 200.351562 137.070312 205.632812 139.804688 211.296875 139.980469 C 210.660156 140.804688 210.007812 141.617188 209.335938 142.410156 L 178.527344 178.820312 L 177.804688 174.5 C 176.648438 167.476562 173.59375 160.902344 168.96875 155.488281 Z M 98.101562 117.539062 C 100.363281 114.375 103.898438 112.367188 107.773438 112.046875 C 111.648438 111.722656 115.46875 113.125 118.21875 115.875 L 161.171875 158.828125 C 165.792969 163.433594 168.851562 169.378906 169.914062 175.816406 L 171.277344 184 L 150 184 L 111.328125 129.78125 C 110.566406 128.640625 109.277344 127.96875 107.90625 128 C 106.535156 128.035156 105.277344 128.765625 104.570312 129.941406 L 92.824219 149.519531 L 72 170.34375 L 65.222656 163.566406 Z M 140 184 L 73.550781 184 L 75.496094 178.160156 L 98.828125 154.828125 C 99.058594 154.597656 99.261719 154.339844 99.429688 154.058594 L 108.175781 139.476562 Z M 36 179.121094 L 48.96875 175.878906 C 49.414062 175.769531 49.839844 175.582031 50.21875 175.328125 L 59.492188 169.148438 L 67.425781 177.082031 L 65.117188 184 L 36 184 Z M 20 192 L 236 192 C 238.210938 192 240 193.789062 240 196 C 240 198.210938 238.210938 200 236 200 L 20 200 C 17.789062 200 16 198.210938 16 196 C 16 193.789062 17.789062 192 20 192 Z M 20 192 "/>
<path style=" stroke:none;fill-rule:nonzero;fill:rgb(0%,0%,0%);fill-opacity:1;" d="M 216.964844 164.730469 L 212.964844 169.398438 C 212.019531 170.480469 211.730469 171.988281 212.203125 173.34375 C 212.675781 174.699219 213.839844 175.699219 215.253906 175.957031 C 216.667969 176.21875 218.109375 175.703125 219.035156 174.601562 L 223.035156 169.9375 C 224.476562 168.257812 224.28125 165.734375 222.601562 164.296875 C 220.925781 162.859375 218.402344 163.050781 216.964844 164.730469 Z M 216.964844 164.730469 "/>
<path style=" stroke:none;fill-rule:nonzero;fill:rgb(0%,0%,0%);fill-opacity:1;" d="M 236.964844 141.398438 L 224.964844 155.398438 C 223.523438 157.074219 223.71875 159.597656 225.398438 161.035156 C 227.074219 162.476562 229.597656 162.28125 231.035156 160.601562 L 243.035156 146.601562 C 244.476562 144.925781 244.28125 142.402344 242.601562 140.964844 C 240.925781 139.523438 238.402344 139.71875 236.964844 141.398438 Z M 236.964844 141.398438 "/>
</g>
</svg>
