<svg id="Layer_5" enable-background="new 0 0 64 64" height="512" viewBox="0 0 64 64" width="512" xmlns="http://www.w3.org/2000/svg"><g><g><path d="m37.63 29h2.37c0 5.52-4.48 10-10 10h-1c-5.22 0-9.51-4.01-9.96-9.12-.03-.29-.04-.58-.04-.88v-3.11-1.89-7c0-6.08-4.92-11-11-11h-.18c-.42 1.16-1.52 2-2.82 2-1.66 0-3-1.34-3-3s1.34-3 3-3h3c8.28 0 15 6.72 15 15v8c0 2.21 1.79 4 4 4z" fill="#e6e9ed"/><g fill="#cf9e76"><path d="m2.75 36c3.03 4.01 14.97 7 29.25 7s26.22-2.99 29.25-7c.49-.64.75-1.31.75-2 0 6.22-2.27 11.91-6.03 16.28-1.54-.61-3.33-1.11-5.29-1.49-2.63-.5-5.57-.79-8.68-.79-.2 0-.4 0-.6.01-2.9.03-5.63.31-8.09.79-6.7 1.29-11.31 4.03-11.31 7.2 0 1.09.54 2 1.52 2.76-12.16-1.69-21.52-12.13-21.52-24.76 0 .69.26 1.36.75 2z"/><path d="m37.63 28.91c.82-1.05 1.31-2.3 1.36-3.66 13.2.94 23.01 4.5 23.01 8.75 0 .69-.26 1.36-.75 2-2.45-3.23-10.68-6.12-21.25-7h-2.37z"/><path d="m19 29c0 .3.01.59.04.88-8.14 1.17-14.24 3.42-16.29 6.12-.49-.64-.75-1.31-.75-2 0-3.57 6.94-6.66 17-8.11z"/></g><path d="m50.68 48.79c1.96.38 3.75.88 5.29 1.49 3.72 1.45 6.03 3.48 6.03 5.72 0 4.42-8.95 6-20 6-8.34 0-15.48-.9-18.48-3.24-.98-.76-1.52-1.67-1.52-2.76 0-3.17 4.61-5.91 11.31-7.2 2.46-.48 5.19-.76 8.09-.79.2-.01.4-.01.6-.01 3.11 0 6.05.29 8.68.79z" fill="#b4dd7f"/><path d="m40 29c10.57.88 18.8 3.77 21.25 7-3.03 4.01-14.97 7-29.25 7s-26.22-2.99-29.25-7c2.05-2.7 8.15-4.95 16.29-6.12.45 5.11 4.74 9.12 9.96 9.12h1c5.52 0 10-4.48 10-10z" fill="#b4dd7f"/><path d="m39 25c0 .08 0 .17-.01.25-.05 1.36-.54 2.61-1.36 3.66v.09h-10.63c-2.21 0-4-1.79-4-4 0-3.87 3.58-7 8-7s8 3.13 8 7z" fill="#b4dd7f"/></g><g><path d="m55.386 36.408-.771-1.845c-1.69.707-5.461 2.01-11.739 2.796l.249 1.984c4.826-.604 9.181-1.646 12.261-2.935z"/><path d="m41.099 39.571-.198-1.99c-.64.063-1.299.121-1.975.171l.148 1.994c.693-.052 1.368-.11 2.025-.175z"/><path d="m11.32 46.38-1.57 1.24c2.341 2.965 5.408 5.29 8.867 6.723l.766-1.848c-3.145-1.303-5.933-3.417-8.063-6.115z"/><path d="m8.945 42.569-1.805.862c.341.714.726 1.419 1.144 2.094l1.701-1.051c-.38-.614-.73-1.255-1.04-1.905z"/><path d="m57.539 49.902c3.517-4.541 5.461-10.129 5.461-15.902 0-5.413-11.426-8.728-23.039-9.681-.391-4.093-4.257-7.319-8.961-7.319-2.826 0-5.349 1.166-7 2.983v-2.983c0-8.822-7.178-16-16-16h-3c-2.206 0-4 1.794-4 4s1.794 4 4 4c1.431 0 2.738-.776 3.445-1.99 5.308.234 9.555 4.625 9.555 9.99v8.033c-10.657 1.663-17 4.99-17 8.967 0 12.801 9.475 23.786 22.084 25.695 3.03 2.196 9.355 3.305 18.916 3.305 13.935 0 21-2.355 21-7 0-2.377-2.065-4.505-5.461-6.098zm-28.539-9.902h1c5.695 0 10.393-4.351 10.944-9.904 9.944.961 16.55 3.602 18.97 5.924-3.291 3.122-13.843 5.98-27.914 5.98-14.073 0-24.625-2.859-27.916-5.981 2.178-2.099 7.306-3.92 14.111-4.995.953 5.101 5.432 8.976 10.805 8.976zm32-6c0 .093-.013.186-.027.28-3.517-3.084-11.402-5.49-20.89-6.276l-.001.013c-.029-.003-.053-.017-.082-.017h-.68c.247-.54.44-1.098.548-1.675 13.24 1.09 21.132 4.711 21.132 7.675zm-30-15c3.86 0 7 2.691 7 6 0 1.062-.341 2.088-.96 3h-10.04c-1.654 0-3-1.346-3-3 0-3.309 3.14-6 7-6zm-23-14h-.184c-.423 0-.8.266-.942.665-.284.798-1.037 1.335-1.874 1.335-1.103 0-2-.897-2-2s.897-2 2-2h3c7.72 0 14 6.28 14 14v8c0 2.757 2.243 5 5 5h11.945c-.499 4.494-4.32 8-8.945 8h-1c-4.962 0-9-4.038-9-9v-12c0-6.617-5.383-12-12-12zm10 22.058v1.942c0 .01.002.02.002.031-6.999 1.095-12.297 2.961-14.974 5.252-.015-.095-.028-.189-.028-.283 0-2.226 4.716-5.289 15-6.942zm-14.646 10.954c4.979 3.912 17.088 5.988 28.646 5.988 11.564 0 23.679-2.078 28.654-5.994-.687 4.057-2.416 7.88-5.029 11.1-3.644-1.317-8.377-2.106-13.625-2.106-11.776 0-21 3.953-21 9 0 .453.088.879.222 1.288-9.243-2.293-16.274-9.957-17.868-19.276zm38.646 22.988c-11.897 0-19-1.869-19-5 0-2.302 3.777-4.783 9.839-6.084 1.374 2.137 2.161 3.972 2.161 5.084h2c0-1.404-.692-3.243-2.042-5.469 1.812-.282 3.784-.459 5.889-.507 1.386 2.303 2.153 4.412 2.153 5.976h2c0-2.003-.873-4.175-1.845-5.976 2.493.058 4.805.294 6.878.671 1.266 2.349 1.967 4.226 1.967 5.305h2c0-1.163-.485-2.757-1.437-4.749 5.233 1.363 8.437 3.631 8.437 5.749 0 3.131-7.103 5-19 5z"/><path d="m25.75 56.672c.906.547 4.758 2.328 16.25 2.328v-2c-11.498 0-14.872-1.832-15.219-2.041z"/><path d="m26 15h2c0-.797.302-1.15.759-1.683.553-.645 1.241-1.448 1.241-2.985s-.688-2.339-1.241-2.984c-.457-.534-.759-.886-.759-1.683 0-.796.302-1.148.759-1.682.553-.645 1.241-1.447 1.241-2.983h-2c0 .796-.302 1.148-.759 1.681-.553.645-1.241 1.447-1.241 2.984s.688 2.34 1.241 2.985c.457.533.759.885.759 1.682s-.302 1.15-.759 1.683c-.553.645-1.241 1.448-1.241 2.985z"/><path d="m31.241 8.649c.457.534.759.886.759 1.683s-.302 1.15-.759 1.683c-.553.645-1.241 1.448-1.241 2.985h2c0-.797.302-1.15.759-1.683.553-.645 1.241-1.448 1.241-2.985s-.688-2.339-1.241-2.984c-.457-.534-.759-.886-.759-1.683 0-.796.302-1.148.759-1.682.553-.645 1.241-1.447 1.241-2.983h-2c0 .796-.302 1.148-.759 1.681-.553.645-1.241 1.447-1.241 2.984s.688 2.339 1.241 2.984z"/><path d="m35.241 8.649c.457.534.759.886.759 1.683s-.302 1.15-.759 1.683c-.553.645-1.241 1.448-1.241 2.985h2c0-.797.302-1.15.759-1.683.553-.645 1.241-1.448 1.241-2.985s-.688-2.339-1.241-2.984c-.457-.534-.759-.886-.759-1.683 0-.796.302-1.148.759-1.682.553-.645 1.241-1.447 1.241-2.983h-2c0 .796-.302 1.148-.759 1.681-.553.645-1.241 1.447-1.241 2.984s.688 2.339 1.241 2.984z"/><path d="m26.5 22.882h2v2.236h-2z" transform="matrix(.894 -.447 .447 .894 -7.83 14.832)"/><path d="m31.882 22.5h2.236v2h-2.236z" transform="matrix(.894 -.447 .447 .894 -7.026 17.239)"/></g></g></svg>