<?xml version="1.0" encoding="UTF-8"?>
<svg xmlns="http://www.w3.org/2000/svg" xmlns:xlink="http://www.w3.org/1999/xlink" width="100pt" height="100pt" viewBox="0 0 100 100" version="1.1">
<g id="surface1">
<path style=" stroke:none;fill-rule:nonzero;fill:rgb(18.431373%,25.098039%,32.941176%);fill-opacity:1;" d="M 52.933594 23.28125 L 48.261719 29.488281 L 43.589844 23.28125 Z M 52.933594 23.28125 "/>
<path style=" stroke:none;fill-rule:nonzero;fill:rgb(95.686275%,80.784314%,68.627451%);fill-opacity:1;" d="M 31.136719 74.5 L 31.136719 72.949219 L 26.304688 59.695312 C 23.488281 51.976562 24.996094 43.351562 30.273438 37.042969 L 32.695312 34.144531 L 34.445312 34.144531 C 36.464844 34.144531 38.234375 32.796875 38.761719 30.855469 C 38.867188 30.472656 38.921875 30.078125 38.921875 29.683594 L 38.921875 22.261719 L 48.261719 22.722656 L 48.261719 34.144531 L 52.933594 34.144531 L 51.734375 38.335938 C 50.5 42.628906 50.929688 47.226562 52.933594 51.214844 C 48.632812 55.503906 48.632812 62.453125 52.933594 66.738281 L 63.183594 72.089844 Z M 31.136719 74.5 "/>
<path style=" stroke:none;fill-rule:nonzero;fill:rgb(22.352941%,40.392157%,58.431373%);fill-opacity:1;" d="M 94.96875 84.015625 C 94.96875 89.902344 90.179688 94.675781 84.273438 94.675781 L 26.929688 94.675781 C 21.464844 94.675781 16.039062 93.800781 10.855469 92.078125 C 6.648438 90.675781 4.074219 86.441406 4.789062 82.074219 C 5.5 77.707031 9.28125 74.5 13.71875 74.5 L 31.136719 74.5 L 31.136719 72.949219 L 35.324219 72.949219 C 41.65625 72.949219 47.679688 70.242188 51.875 65.523438 C 52.195312 65.949219 52.550781 66.359375 52.933594 66.738281 L 79.347656 80.535156 L 78.167969 76.414062 L 74.921875 65.089844 L 81.824219 61.652344 L 93.085938 77.980469 C 94.308594 79.757812 94.96875 81.859375 94.96875 84.015625 Z M 94.96875 84.015625 "/>
<path style=" stroke:none;fill-rule:nonzero;fill:rgb(95.686275%,80.784314%,68.627451%);fill-opacity:1;" d="M 82.511719 54.550781 C 82.519531 55.800781 82.011719 57 81.109375 57.875 C 80.238281 58.726562 79.0625 59.207031 77.84375 59.214844 C 77.117188 59.214844 76.402344 59.039062 75.753906 58.714844 L 66.785156 54.246094 L 57.601562 49.667969 L 52.933594 51.214844 L 45.148438 43.457031 L 52.933594 34.144531 L 60.714844 35.699219 L 65.90625 41.519531 L 73.171875 49.667969 L 70.203125 38.820312 L 68.5 32.59375 L 62.273438 31.042969 L 65.386719 24.832031 L 68.5 24.832031 L 71.613281 26.386719 L 73.171875 32.59375 L 79.195312 42.597656 C 81.367188 46.207031 82.511719 50.339844 82.511719 54.550781 Z M 82.511719 54.550781 "/>
<path style=" stroke:none;fill-rule:nonzero;fill:rgb(95.686275%,80.784314%,68.627451%);fill-opacity:1;" d="M 65.386719 20.175781 L 65.386719 24.832031 L 62.273438 31.042969 L 57.601562 26.386719 L 49.820312 21.207031 L 45.925781 18.625 L 34.25 21.726562 L 34.25 35.699219 L 24.910156 52.769531 L 26.179688 23.683594 C 26.367188 19.304688 27.25 14.984375 28.792969 10.878906 C 29.898438 7.9375 33.03125 6.28125 36.089844 7.019531 C 36.472656 7.117188 36.84375 7.242188 37.203125 7.40625 L 49.820312 13.121094 Z M 65.386719 20.175781 "/>
<path style=" stroke:none;fill-rule:nonzero;fill:rgb(54.117647%,80%,90.588235%);fill-opacity:1;" d="M 52.933594 51.214844 C 49.070312 55.066406 48.621094 61.152344 51.875 65.523438 C 47.679688 70.242188 41.65625 72.949219 35.324219 72.949219 L 31.136719 72.949219 L 26.304688 59.695312 C 23.488281 51.976562 24.996094 43.351562 30.273438 37.042969 L 32.695312 34.144531 L 34.445312 34.144531 C 34.910156 34.144531 35.363281 34.074219 35.808594 33.933594 L 35.808594 37.25 C 35.808594 38.070312 36.132812 38.863281 36.714844 39.445312 C 37.300781 40.027344 38.097656 40.359375 38.921875 40.355469 C 41.859375 40.355469 44.628906 38.972656 46.394531 36.628906 L 48.261719 34.144531 L 52.933594 34.144531 L 51.734375 38.335938 C 50.5 42.628906 50.929688 47.226562 52.933594 51.214844 Z M 52.933594 51.214844 "/>
<path style=" stroke:none;fill-rule:nonzero;fill:rgb(14.901961%,17.647059%,26.27451%);fill-opacity:1;" d="M 60.714844 21.726562 C 60.714844 24.300781 58.625 26.386719 56.046875 26.386719 C 53.46875 26.386719 51.375 24.300781 51.375 21.726562 C 51.375 19.15625 53.46875 17.070312 56.046875 17.070312 C 58.625 17.070312 60.714844 19.15625 60.714844 21.726562 Z M 60.714844 21.726562 "/>
<path style=" stroke:none;fill-rule:nonzero;fill:rgb(18.431373%,25.098039%,32.941176%);fill-opacity:1;" d="M 56.046875 15.523438 C 56.046875 21.519531 51.167969 26.386719 45.148438 26.386719 C 39.128906 26.386719 34.25 21.519531 34.25 15.523438 C 34.25 9.523438 39.128906 4.65625 45.148438 4.65625 C 51.167969 4.660156 56.046875 9.523438 56.046875 15.523438 Z M 56.046875 15.523438 "/>
<path style=" stroke:none;fill-rule:nonzero;fill:rgb(95.686275%,80.784314%,68.627451%);fill-opacity:1;" d="M 81.824219 61.652344 L 74.921875 65.089844 L 73.171875 58.980469 C 70.332031 58.035156 68.328125 55.507812 68.054688 52.539062 L 67.207031 43.21875 C 67.089844 41.921875 67.941406 40.734375 69.214844 40.429688 C 70.488281 40.125 71.792969 40.796875 72.28125 42.003906 L 77.84375 55.871094 Z M 81.824219 61.652344 "/>
<path style=" stroke:none;fill-rule:nonzero;fill:rgb(95.686275%,80.784314%,68.627451%);fill-opacity:1;" d="M 66.945312 92.753906 C 66.945312 93.816406 66.082031 94.671875 65.019531 94.675781 L 42.035156 94.675781 L 42.035156 84.519531 L 45.148438 85.363281 C 47.007812 83.507812 49.851562 83.050781 52.199219 84.226562 L 65.878906 91.042969 C 66.535156 91.363281 66.945312 92.03125 66.945312 92.753906 Z M 66.945312 92.753906 "/>
<path style=" stroke:none;fill-rule:nonzero;fill:rgb(94.901961%,75.686275%,58.039216%);fill-opacity:1;" d="M 48.261719 22.722656 L 48.261719 31.042969 L 40.476562 31.042969 C 39.902344 31.042969 39.324219 30.976562 38.761719 30.855469 C 38.867188 30.472656 38.921875 30.078125 38.921875 29.683594 L 38.921875 22.261719 Z M 48.261719 22.722656 "/>
<path style=" stroke:none;fill-rule:nonzero;fill:rgb(95.686275%,80.784314%,68.627451%);fill-opacity:1;" d="M 48.261719 18.625 L 48.261719 29.488281 L 40.476562 29.488281 C 37.039062 29.488281 34.25 26.710938 34.25 23.28125 L 34.25 15.523438 C 34.25 15.003906 34.285156 14.480469 34.359375 13.96875 L 43.589844 13.96875 C 46.171875 13.96875 48.261719 16.058594 48.261719 18.625 Z M 48.261719 18.625 "/>
<path style=" stroke:none;fill-rule:nonzero;fill:rgb(94.901961%,75.686275%,58.039216%);fill-opacity:1;" d="M 48.261719 18.625 C 48.261719 16.914062 49.65625 15.523438 51.375 15.523438 C 53.09375 15.523438 54.488281 16.914062 54.488281 18.625 L 54.488281 21.726562 C 54.488281 23.441406 53.09375 24.832031 51.375 24.832031 L 48.261719 24.832031 Z M 48.261719 18.625 "/>
<path style=" stroke:none;fill-rule:nonzero;fill:rgb(0%,0%,0%);fill-opacity:1;" d="M 55.953125 17.695312 C 55.945312 17.660156 55.941406 17.628906 55.929688 17.597656 L 55.949219 17.601562 Z M 55.953125 17.695312 "/>
<path style=" stroke:none;fill-rule:nonzero;fill:rgb(0%,0%,0%);fill-opacity:1;" d="M 38.921875 18.625 C 38.921875 19.480469 38.222656 20.175781 37.363281 20.175781 C 36.503906 20.175781 35.808594 19.480469 35.808594 18.625 C 35.808594 17.769531 36.503906 17.070312 37.363281 17.070312 C 38.222656 17.070312 38.921875 17.769531 38.921875 18.625 Z M 38.921875 18.625 "/>
<path style=" stroke:none;fill-rule:nonzero;fill:rgb(0%,0%,0%);fill-opacity:1;" d="M 43.589844 18.625 C 43.589844 19.480469 42.894531 20.175781 42.035156 20.175781 C 41.175781 20.175781 40.476562 19.480469 40.476562 18.625 C 40.476562 17.769531 41.175781 17.070312 42.035156 17.070312 C 42.894531 17.070312 43.589844 17.769531 43.589844 18.625 Z M 43.589844 18.625 "/>
<path style=" stroke:none;fill-rule:nonzero;fill:rgb(0%,0%,0%);fill-opacity:1;" d="M 94.371094 77.101562 L 82.007812 59.171875 C 83.328125 57.996094 84.078125 56.3125 84.070312 54.550781 C 84.070312 50.054688 82.847656 45.648438 80.527344 41.792969 L 74.625 31.988281 L 73.125 26.011719 C 73.015625 25.570312 72.71875 25.199219 72.3125 24.996094 L 69.199219 23.445312 C 68.980469 23.339844 68.742188 23.28125 68.5 23.28125 L 66.945312 23.28125 L 66.945312 20.175781 C 66.945312 19.566406 66.585938 19.015625 66.03125 18.761719 L 57.589844 14.9375 C 57.375 10.28125 54.554688 6.140625 50.300781 4.214844 C 46.039062 2.285156 41.058594 2.902344 37.398438 5.804688 C 35.464844 5.070312 33.3125 5.132812 31.425781 5.984375 C 29.539062 6.835938 28.066406 8.398438 27.335938 10.332031 C 25.738281 14.589844 24.820312 19.070312 24.621094 23.613281 L 23.515625 49 L 23.515625 49.003906 C 23.40625 49.9375 23.351562 50.875 23.351562 51.808594 C 23.351562 54.679688 23.855469 57.527344 24.839844 60.222656 L 29.480469 72.949219 L 13.71875 72.949219 C 8.515625 72.949219 4.082031 76.707031 3.25 81.824219 C 2.417969 86.945312 5.429688 91.910156 10.363281 93.546875 C 15.707031 95.324219 21.300781 96.230469 26.929688 96.226562 L 84.273438 96.226562 C 88.824219 96.226562 93 93.714844 95.117188 89.703125 C 97.230469 85.691406 96.945312 80.839844 94.371094 77.101562 Z M 66.351562 26.386719 L 68.132812 26.386719 L 70.277344 27.453125 L 71.660156 32.96875 C 71.699219 33.117188 71.757812 33.261719 71.835938 33.394531 L 77.855469 43.394531 C 79.886719 46.765625 80.957031 50.617188 80.957031 54.550781 C 80.960938 55.289062 80.695312 56.007812 80.210938 56.570312 L 79.226562 55.136719 L 73.722656 41.429688 C 73.382812 40.574219 72.769531 39.855469 71.972656 39.386719 L 70.003906 32.183594 C 69.855469 31.644531 69.425781 31.222656 68.878906 31.089844 L 64.535156 30.003906 Z M 49.820312 30.007812 L 52.308594 26.695312 C 53.621094 27.675781 55.269531 28.101562 56.898438 27.882812 L 61.171875 32.136719 C 61.375 32.335938 61.621094 32.476562 61.894531 32.546875 L 67.238281 33.875 L 68.632812 38.976562 C 67.917969 39.191406 67.269531 39.59375 66.761719 40.136719 L 61.878906 34.667969 C 61.65625 34.414062 61.355469 34.238281 61.019531 34.175781 L 53.292969 32.632812 L 53.238281 32.621094 C 53.136719 32.605469 53.035156 32.59375 52.933594 32.59375 L 49.820312 32.59375 Z M 66.472656 52.347656 L 58.300781 48.277344 C 57.929688 48.09375 57.503906 48.0625 57.109375 48.191406 L 53.773438 49.300781 C 52.417969 45.949219 52.226562 42.234375 53.230469 38.761719 L 54.035156 35.949219 L 59.898438 37.117188 L 65.675781 43.59375 L 65.675781 43.597656 Z M 53.789062 52.570312 L 57.484375 51.34375 L 67.714844 56.441406 C 68.679688 58.085938 70.144531 59.378906 71.886719 60.148438 L 76.855469 77.476562 L 53.875 65.480469 C 50.425781 61.875 50.390625 56.214844 53.789062 52.570312 Z M 74.667969 58.550781 C 74.527344 58.058594 74.152344 57.667969 73.664062 57.507812 C 71.414062 56.761719 69.820312 54.75 69.605469 52.398438 L 68.753906 43.078125 C 68.707031 42.546875 69.054688 42.058594 69.578125 41.9375 C 70.101562 41.8125 70.632812 42.085938 70.832031 42.578125 L 76.394531 56.449219 C 76.4375 56.558594 76.492188 56.660156 76.5625 56.753906 L 79.53125 61.058594 L 75.902344 62.863281 Z M 62.273438 21.726562 C 62.273438 21.28125 62.226562 20.839844 62.132812 20.40625 L 63.832031 21.175781 L 63.832031 24.46875 L 61.847656 28.417969 L 59.96875 26.546875 C 61.429688 25.371094 62.273438 23.601562 62.273438 21.726562 Z M 55.949219 17.601562 L 55.953125 17.695312 C 55.945312 17.660156 55.941406 17.628906 55.929688 17.597656 Z M 56.046875 21.726562 L 56.046875 21.535156 C 56.519531 20.679688 56.890625 19.773438 57.152344 18.828125 C 58.558594 19.363281 59.378906 20.820312 59.105469 22.292969 C 58.835938 23.761719 57.550781 24.832031 56.046875 24.832031 C 55.691406 24.835938 55.339844 24.773438 55.007812 24.65625 C 55.679688 23.828125 56.046875 22.792969 56.046875 21.726562 Z M 45.148438 6.210938 C 50.160156 6.214844 54.277344 10.160156 54.480469 15.152344 C 52.824219 13.671875 50.347656 13.570312 48.574219 14.902344 C 47.398438 13.339844 45.550781 12.414062 43.589844 12.414062 L 36.339844 12.414062 C 37.664062 8.695312 41.191406 6.214844 45.148438 6.210938 Z M 35.808594 15.523438 L 43.589844 15.523438 C 45.3125 15.523438 46.707031 16.914062 46.707031 18.625 C 46.707031 19.480469 47.402344 20.175781 48.261719 20.175781 C 49.121094 20.175781 49.820312 19.480469 49.820312 18.625 C 49.820312 17.769531 50.515625 17.070312 51.375 17.070312 C 52.234375 17.070312 52.933594 17.769531 52.933594 18.625 L 52.933594 21.726562 C 52.933594 22.585938 52.234375 23.277344 51.375 23.28125 L 49.820312 23.28125 L 49.820312 21.726562 L 46.707031 21.726562 L 46.707031 33.628906 L 45.148438 35.699219 C 43.675781 37.648438 41.371094 38.796875 38.921875 38.800781 C 38.0625 38.796875 37.363281 38.105469 37.363281 37.25 L 37.363281 34.945312 C 38.855469 34.121094 39.933594 32.699219 40.320312 31.039062 C 40.375 31.042969 40.425781 31.042969 40.476562 31.042969 L 43.589844 31.042969 L 43.589844 27.9375 L 40.476562 27.9375 C 37.898438 27.933594 35.8125 25.851562 35.808594 23.28125 Z M 35.808594 29.484375 C 36.265625 29.832031 36.757812 30.121094 37.285156 30.359375 C 37.089844 31.171875 36.550781 31.867188 35.808594 32.253906 Z M 27.734375 23.75 C 27.917969 19.535156 28.769531 15.375 30.253906 11.421875 C 30.980469 9.496094 32.886719 8.273438 34.949219 8.40625 C 33.480469 10.492188 32.691406 12.976562 32.695312 15.523438 L 32.695312 32.59375 C 32.230469 32.59375 31.792969 32.800781 31.496094 33.148438 L 29.078125 36.046875 C 28.347656 36.925781 27.675781 37.847656 27.074219 38.816406 Z M 27.765625 59.164062 C 25.140625 51.964844 26.550781 43.917969 31.46875 38.03125 L 33.421875 35.699219 L 34.25 35.699219 L 34.25 37.25 C 34.253906 39.820312 36.339844 41.902344 38.921875 41.90625 C 42.347656 41.898438 45.578125 40.289062 47.640625 37.558594 L 49.039062 35.699219 L 50.867188 35.699219 L 50.238281 37.910156 C 48.996094 42.21875 49.296875 46.820312 51.085938 50.933594 C 47.667969 55.007812 47.191406 60.78125 49.894531 65.355469 C 46.035156 69.222656 40.796875 71.394531 35.324219 71.394531 L 32.226562 71.394531 Z M 65.019531 93.125 L 43.589844 93.125 L 43.589844 86.550781 L 44.738281 86.859375 C 45.277344 87.007812 45.851562 86.859375 46.25 86.460938 C 47.636719 85.082031 49.75 84.734375 51.507812 85.613281 L 65.1875 92.425781 C 65.335938 92.503906 65.414062 92.675781 65.375 92.84375 C 65.335938 93.007812 65.1875 93.125 65.019531 93.125 Z M 84.273438 93.125 L 68.480469 93.125 C 68.492188 93 68.5 92.878906 68.5 92.753906 C 68.503906 91.441406 67.757812 90.238281 66.574219 89.652344 L 52.898438 82.832031 C 50.25 81.515625 47.082031 81.828125 44.75 83.648438 L 34.609375 80.886719 C 30.332031 79.722656 25.875 79.40625 21.480469 79.957031 L 15.375 80.71875 L 15.761719 83.800781 L 21.867188 83.039062 C 25.859375 82.539062 29.910156 82.824219 33.785156 83.882812 L 40.476562 85.703125 L 40.476562 93.125 L 26.929688 93.125 C 21.632812 93.128906 16.371094 92.273438 11.351562 90.605469 C 7.867188 89.449219 5.734375 85.9375 6.328125 82.320312 C 6.914062 78.707031 10.046875 76.050781 13.71875 76.050781 L 31.136719 76.050781 C 31.996094 76.050781 32.695312 75.355469 32.695312 74.5 L 35.324219 74.5 C 41.484375 74.496094 47.402344 72.101562 51.816406 67.820312 L 51.828125 67.835938 C 51.941406 67.949219 52.070312 68.039062 52.210938 68.117188 L 84.90625 85.1875 L 86.347656 82.433594 L 80.660156 79.46875 L 76.773438 65.902344 L 81.308594 63.644531 L 91.804688 78.859375 C 93.726562 81.644531 93.941406 85.261719 92.359375 88.253906 C 90.78125 91.25 87.667969 93.125 84.273438 93.125 Z M 84.273438 93.125 "/>
</g>
</svg>
