<?xml version="1.0" encoding="UTF-8"?>
<svg xmlns="http://www.w3.org/2000/svg" xmlns:xlink="http://www.w3.org/1999/xlink" width="100pt" height="100pt" viewBox="0 0 100 100" version="1.1">
<g id="surface1">
<path style=" stroke:none;fill-rule:nonzero;fill:rgb(98.823529%,69.411765%,26.27451%);fill-opacity:1;" d="M 98.476562 60.527344 C 98.476562 62.402344 96.957031 63.921875 95.082031 63.921875 C 93.207031 63.921875 91.6875 62.402344 91.6875 60.527344 C 91.6875 58.652344 93.207031 57.132812 95.082031 57.132812 C 96.957031 57.132812 98.476562 58.652344 98.476562 60.527344 Z M 98.476562 60.527344 "/>
<path style=" stroke:none;fill-rule:nonzero;fill:rgb(41.176471%,84.705882%,89.411765%);fill-opacity:1;" d="M 15.953125 38.121094 L 12.910156 36.539062 C 11.417969 35.761719 10.023438 34.8125 8.761719 33.710938 L 4.855469 30.304688 C 4.226562 29.761719 3.328125 29.667969 2.605469 30.066406 L 2.566406 30.085938 C 1.640625 30.601562 1.269531 31.734375 1.710938 32.691406 L 5.128906 40.097656 C 5.714844 41.367188 6.949219 42.214844 8.34375 42.304688 L 11.417969 42.5 L 13.003906 43.339844 L 14.84375 42.328125 L 16.042969 40.207031 Z M 15.953125 38.121094 "/>
<path style=" stroke:none;fill-rule:nonzero;fill:rgb(98.431373%,45.490196%,76.862745%);fill-opacity:1;" d="M 85.382812 58.777344 C 84.824219 57.28125 82.425781 55.9375 79.644531 54.847656 C 79.417969 54.757812 79.191406 54.667969 78.960938 54.585938 C 72.386719 52.167969 65.199219 52.007812 58.460938 53.921875 L 47.273438 57.097656 L 44.148438 61.984375 L 44.148438 69.140625 L 78.421875 69.140625 C 84.21875 69.117188 85.390625 58.777344 85.390625 58.777344 Z M 85.382812 58.777344 "/>
<path style=" stroke:none;fill-rule:nonzero;fill:rgb(99.215686%,30.588235%,70.588235%);fill-opacity:1;" d="M 85.382812 58.777344 C 84.824219 57.28125 82.425781 55.9375 79.644531 54.847656 C 79.417969 54.757812 79.191406 54.667969 78.960938 54.585938 C 78.699219 54.488281 78.4375 54.398438 78.171875 54.308594 C 77.832031 57.421875 76.152344 69.320312 70.511719 69.140625 L 78.421875 69.140625 C 84.21875 69.117188 85.390625 58.777344 85.390625 58.777344 Z M 85.382812 58.777344 "/>
<path style=" stroke:none;fill-rule:nonzero;fill:rgb(1.960784%,44.313725%,58.431373%);fill-opacity:1;" d="M 27.832031 52.085938 L 13.003906 43.339844 L 15.953125 38.121094 L 34.246094 45.113281 C 34.613281 45.257812 34.964844 45.449219 35.28125 45.691406 L 49.46875 56.472656 L 47.5 69.140625 L 43.394531 69.140625 C 40.558594 69.140625 37.925781 67.664062 36.445312 65.242188 L 29.269531 53.5 C 28.914062 52.917969 28.421875 52.433594 27.832031 52.085938 Z M 27.832031 52.085938 "/>
<path style=" stroke:none;fill-rule:nonzero;fill:rgb(41.176471%,84.705882%,89.411765%);fill-opacity:1;" d="M 39.925781 31.578125 L 36.871094 30.589844 C 35.375 30.105469 33.941406 29.441406 32.601562 28.621094 L 28.464844 26.085938 C 27.804688 25.679688 26.960938 25.730469 26.351562 26.214844 L 26.320312 26.238281 C 25.542969 26.855469 25.375 27.960938 25.929688 28.773438 L 30.238281 35.085938 C 30.976562 36.167969 32.246094 36.753906 33.550781 36.621094 L 36.417969 36.328125 L 38.015625 36.855469 L 39.386719 35.941406 L 40.347656 33.289062 Z M 39.925781 31.578125 "/>
<path style=" stroke:none;fill-rule:nonzero;fill:rgb(5.490196%,50.196078%,67.45098%);fill-opacity:1;" d="M 39.925781 31.578125 L 38.015625 36.855469 L 48.957031 42.730469 C 49.527344 43.046875 49.671875 43.800781 49.253906 44.300781 L 36.679688 59.296875 C 35.074219 61.96875 35.40625 65.378906 37.496094 67.691406 L 38.796875 69.128906 L 47.871094 69.140625 L 60.023438 42.828125 C 60.855469 41.03125 59.972656 38.902344 58.113281 38.222656 Z M 39.925781 31.578125 "/>
<path style=" stroke:none;fill-rule:nonzero;fill:rgb(100%,94.117647%,86.27451%);fill-opacity:1;" d="M 73.769531 61.738281 C 75.027344 63.304688 77.316406 63.554688 78.886719 62.296875 C 80.453125 61.035156 80.703125 58.746094 79.445312 57.179688 L 65.867188 43.257812 C 63.925781 41.265625 60.679688 39.292969 58.113281 38.222656 L 55.683594 37.332031 C 55.292969 37.191406 54.679688 37.96875 55.183594 38.59375 Z M 73.769531 61.738281 "/>
<path style=" stroke:none;fill-rule:nonzero;fill:rgb(100%,94.117647%,86.27451%);fill-opacity:1;" d="M 95.136719 57.636719 C 98.820312 54.878906 99.570312 49.65625 96.8125 45.972656 C 94.054688 42.289062 88.832031 41.539062 85.148438 44.296875 L 83.503906 45.527344 C 79.820312 48.285156 79.070312 53.507812 81.832031 57.191406 C 84.589844 60.875 89.8125 61.625 93.496094 58.867188 Z M 95.136719 57.636719 "/>
<path style=" stroke:none;fill-rule:nonzero;fill:rgb(100%,89.411765%,75.294118%);fill-opacity:1;" d="M 96.8125 45.972656 C 96.351562 45.359375 95.824219 44.828125 95.246094 44.378906 C 94.886719 46.886719 93.5625 49.253906 91.359375 50.867188 L 82.164062 57.601562 C 84.992188 60.925781 89.957031 61.519531 93.496094 58.867188 L 95.136719 57.636719 C 98.820312 54.878906 99.570312 49.65625 96.8125 45.972656 Z M 96.8125 45.972656 "/>
<path style=" stroke:none;fill-rule:nonzero;fill:rgb(98.823529%,69.411765%,26.27451%);fill-opacity:1;" d="M 96.8125 45.972656 C 94.515625 42.90625 90.515625 41.875 87.113281 43.203125 L 90.894531 48.25 C 91.808594 49.472656 91.558594 51.207031 90.339844 52.121094 C 89.800781 52.523438 89.425781 53.109375 89.289062 53.769531 L 87.886719 60.503906 C 89.824219 60.648438 91.820312 60.121094 93.496094 58.867188 L 95.136719 57.636719 C 98.820312 54.878906 99.570312 49.65625 96.8125 45.972656 Z M 96.8125 45.972656 "/>
<path style=" stroke:none;fill-rule:nonzero;fill:rgb(98.039216%,59.607843%,0.392157%);fill-opacity:1;" d="M 96.8125 45.972656 C 96.351562 45.359375 95.824219 44.828125 95.246094 44.378906 C 94.886719 46.886719 93.5625 49.253906 91.359375 50.867188 L 91.238281 50.957031 C 91.054688 51.402344 90.753906 51.808594 90.339844 52.121094 C 89.800781 52.523438 89.425781 53.109375 89.289062 53.769531 L 87.886719 60.503906 C 87.890625 60.503906 87.890625 60.503906 87.894531 60.503906 C 89.828125 60.648438 91.820312 60.121094 93.496094 58.867188 L 95.136719 57.636719 C 98.820312 54.878906 99.570312 49.65625 96.8125 45.972656 Z M 96.8125 45.972656 "/>
<path style=" stroke:none;fill-rule:nonzero;fill:rgb(81.568627%,94.117647%,95.294118%);fill-opacity:1;" d="M 95.9375 74.1875 L 4.0625 74.1875 C 2.628906 74.1875 1.464844 73.027344 1.464844 71.589844 C 1.464844 70.15625 2.628906 68.992188 4.0625 68.992188 L 95.9375 68.992188 C 97.371094 68.992188 98.535156 70.15625 98.535156 71.589844 C 98.535156 73.027344 97.371094 74.1875 95.9375 74.1875 Z M 95.9375 74.1875 "/>
<path style=" stroke:none;fill-rule:nonzero;fill:rgb(64.705882%,89.411765%,93.72549%);fill-opacity:1;" d="M 95.9375 68.992188 L 90.816406 68.992188 L 90.816406 74.1875 L 95.9375 74.1875 C 97.371094 74.1875 98.535156 73.027344 98.535156 71.589844 C 98.535156 70.15625 97.371094 68.992188 95.9375 68.992188 Z M 95.9375 68.992188 "/>
<path style=" stroke:none;fill-rule:nonzero;fill:rgb(0%,0%,0%);fill-opacity:1;" d="M 95.9375 67.539062 L 83.835938 67.539062 C 84.785156 66.242188 85.671875 64.390625 86.316406 61.757812 C 87.683594 62.066406 89.050781 62.089844 90.394531 61.824219 C 91.308594 65.125 95.253906 66.480469 97.996094 64.429688 C 100.539062 62.523438 100.613281 58.691406 98.085938 56.714844 C 100.527344 53.332031 100.613281 48.617188 97.984375 45.105469 C 96.414062 43.011719 94.125 41.652344 91.535156 41.28125 C 88.945312 40.90625 86.363281 41.566406 84.269531 43.136719 L 82.628906 44.363281 C 80.53125 45.933594 79.171875 48.226562 78.800781 50.816406 C 78.699219 51.535156 78.675781 52.253906 78.730469 52.960938 C 78.09375 52.742188 77.441406 52.546875 76.785156 52.367188 L 71.695312 47.148438 C 71.132812 46.566406 70.203125 46.554688 69.625 47.121094 C 69.046875 47.683594 69.035156 48.613281 69.597656 49.191406 L 78.339844 58.15625 C 79.046875 59.089844 78.886719 60.425781 77.96875 61.164062 C 77.035156 61.914062 75.664062 61.769531 74.910156 60.828125 L 60.710938 43.148438 L 59.0625 40.285156 C 61.277344 41.40625 63.5 42.9375 64.820312 44.289062 C 65.386719 44.867188 66.3125 44.882812 66.890625 44.316406 C 67.46875 43.75 67.480469 42.824219 66.917969 42.246094 C 64.726562 40 61.199219 37.933594 58.675781 36.878906 C 58.65625 36.871094 58.636719 36.863281 58.613281 36.859375 L 56.1875 35.96875 C 56.175781 35.964844 56.167969 35.964844 56.15625 35.957031 C 35.832031 28.535156 41.351562 30.511719 40.378906 30.195312 C 38.070312 29.375 36.074219 29.046875 33.367188 27.382812 L 29.230469 24.847656 C 26.175781 22.972656 22.699219 26.648438 24.722656 29.609375 L 29.03125 35.921875 C 30.070312 37.449219 31.863281 38.277344 33.703125 38.089844 L 36.257812 37.828125 L 37.433594 38.214844 L 47.789062 43.777344 L 42.878906 49.636719 L 36.167969 44.535156 C 35.738281 44.210938 35.269531 43.949219 34.769531 43.757812 L 16.554688 36.792969 C 14.371094 35.574219 12.277344 34.839844 9.722656 32.617188 L 5.816406 29.210938 C 3.019531 26.773438 -1.1875 29.917969 0.378906 33.316406 L 3.800781 40.722656 C 4.609375 42.480469 6.316406 43.652344 8.25 43.777344 L 11.011719 43.953125 L 12.292969 44.628906 L 16.898438 47.347656 C 17.597656 47.757812 18.492188 47.523438 18.90625 46.828125 C 19.316406 46.132812 19.085938 45.234375 18.386719 44.824219 L 14.988281 42.816406 L 16.605469 39.949219 L 33.722656 46.492188 C 33.964844 46.585938 34.1875 46.710938 34.394531 46.867188 L 40.996094 51.882812 L 35.558594 58.367188 C 35.507812 58.425781 35.464844 58.488281 35.425781 58.554688 C 35.1875 58.949219 34.984375 59.359375 34.816406 59.777344 L 30.523438 52.75 C 30.042969 51.964844 29.367188 51.300781 28.578125 50.832031 L 24.285156 48.304688 C 23.589844 47.894531 22.691406 48.125 22.28125 48.820312 C 21.867188 49.515625 22.101562 50.414062 22.796875 50.824219 L 27.085938 53.355469 C 27.46875 53.582031 27.789062 53.898438 28.019531 54.277344 L 34.367188 64.660156 C 34.574219 65.667969 34.964844 66.644531 35.535156 67.539062 L 4.0625 67.539062 C 1.820312 67.539062 0 69.363281 0 71.601562 C 0 73.84375 1.820312 75.664062 4.0625 75.664062 L 95.9375 75.664062 C 98.179688 75.664062 100 73.84375 100 71.601562 C 100 69.363281 98.179688 67.539062 95.9375 67.539062 Z M 8.4375 40.851562 C 7.578125 40.796875 6.820312 40.277344 6.460938 39.496094 L 3.039062 32.085938 C 2.792969 31.558594 3.472656 31.058594 3.890625 31.421875 L 7.796875 34.824219 C 10.519531 37.195312 12.855469 38.117188 13.929688 38.730469 L 12.429688 41.386719 C 12.207031 41.289062 11.953125 41.078125 11.511719 41.050781 Z M 96.238281 62.082031 C 95.074219 62.953125 93.382812 62.269531 93.171875 60.820312 C 94.160156 60.28125 94.585938 59.863281 95.988281 58.839844 C 97.25 59.507812 97.355469 61.246094 96.238281 62.082031 Z M 91.117188 44.179688 C 92.933594 44.441406 94.539062 45.390625 95.640625 46.859375 C 97.785156 49.726562 97.347656 53.734375 94.734375 56.082031 C 94.734375 56.085938 94.730469 56.089844 94.726562 56.089844 C 94.300781 56.472656 92.398438 57.964844 91.140625 58.550781 C 90.679688 58.746094 90.195312 58.882812 89.703125 58.96875 L 90.722656 54.078125 C 90.789062 53.769531 90.964844 53.496094 91.21875 53.304688 C 92.121094 52.628906 92.707031 51.640625 92.867188 50.519531 C 93.027344 49.402344 92.742188 48.289062 92.066406 47.382812 L 89.628906 44.128906 C 90.117188 44.09375 90.585938 44.101562 91.117188 44.179688 Z M 81.703125 51.230469 C 81.960938 49.414062 82.914062 47.808594 84.382812 46.710938 L 86.023438 45.480469 C 86.230469 45.328125 86.445312 45.1875 86.664062 45.058594 L 89.722656 49.140625 C 90.152344 49.714844 90.035156 50.53125 89.460938 50.960938 C 88.636719 51.578125 88.066406 52.472656 87.855469 53.480469 L 86.738281 58.84375 C 85.261719 58.457031 83.949219 57.585938 83.003906 56.324219 C 81.917969 54.878906 81.4375 53.066406 81.703125 51.230469 Z M 79.800781 63.449219 C 81.109375 62.394531 81.765625 60.824219 81.703125 59.265625 C 82.269531 59.808594 82.890625 60.28125 83.5625 60.671875 C 82.355469 65.992188 80.203125 67.25 79.335938 67.539062 L 50.230469 67.539062 L 55.414062 56.320312 C 57.8125 55.714844 60.890625 54.457031 65.792969 54.15625 L 72.628906 62.664062 C 74.394531 64.867188 77.605469 65.210938 79.800781 63.449219 Z M 63.59375 51.414062 C 60.03125 51.839844 57.648438 52.65625 57.03125 52.8125 L 59.835938 46.738281 Z M 36.269531 34.878906 L 33.402344 35.175781 C 32.632812 35.253906 31.882812 34.90625 31.449219 34.269531 L 27.140625 27.957031 C 26.886719 27.585938 27.34375 27.128906 27.699219 27.34375 L 31.835938 29.882812 C 34.703125 31.640625 36.988281 32.132812 38.03125 32.515625 L 37.121094 35.027344 L 36.878906 34.945312 C 36.683594 34.882812 36.472656 34.859375 36.269531 34.878906 Z M 38.582031 66.71875 C 37.871094 65.933594 37.417969 64.996094 37.226562 64.011719 C 37.222656 63.945312 37.210938 63.878906 37.195312 63.8125 C 37.003906 62.585938 37.222656 61.296875 37.878906 60.15625 L 50.375 45.253906 C 50.855469 44.675781 51.054688 43.925781 50.914062 43.1875 C 50.777344 42.453125 50.320312 41.820312 49.652344 41.453125 L 39.824219 36.175781 L 40.804688 33.46875 L 53.53125 38.121094 C 53.539062 38.617188 53.710938 39.109375 54.042969 39.523438 L 57.789062 44.1875 L 47.003906 67.539062 L 39.324219 67.539062 Z M 95.9375 72.734375 L 4.0625 72.734375 C 3.4375 72.734375 2.929688 72.226562 2.929688 71.601562 C 2.929688 70.976562 3.4375 70.46875 4.0625 70.46875 L 95.9375 70.46875 C 96.5625 70.46875 97.070312 70.976562 97.070312 71.601562 C 97.070312 72.226562 96.5625 72.734375 95.9375 72.734375 Z M 95.9375 72.734375 "/>
</g>
</svg>
