<?xml version="1.0" encoding="UTF-8"?>
<svg xmlns="http://www.w3.org/2000/svg" xmlns:xlink="http://www.w3.org/1999/xlink" width="100pt" height="100pt" viewBox="0 0 100 100" version="1.1">
<g id="surface1">
<path style=" stroke:none;fill-rule:nonzero;fill:rgb(18.823529%,22.745098%,34.901961%);fill-opacity:1;" d="M 99.636719 49.667969 C 99.636719 77.09375 77.332031 99.332031 49.820312 99.332031 C 22.304688 99.332031 0 77.09375 0 49.667969 C 0 22.238281 22.304688 0 49.820312 0 C 77.332031 0 99.636719 22.238281 99.636719 49.667969 Z M 99.636719 49.667969 "/>
<path style=" stroke:none;fill-rule:nonzero;fill:rgb(24.313725%,29.019608%,40.784314%);fill-opacity:1;" d="M 83.875 49.667969 C 83.875 68.414062 68.628906 83.617188 49.820312 83.617188 C 31.007812 83.617188 15.761719 68.414062 15.761719 49.667969 C 15.761719 30.917969 31.007812 15.714844 49.820312 15.714844 C 68.628906 15.714844 83.875 30.917969 83.875 49.667969 Z M 83.875 49.667969 "/>
<path style=" stroke:none;fill-rule:nonzero;fill:rgb(100%,68.235294%,63.137255%);fill-opacity:1;" d="M 89.417969 26.300781 C 87.523438 26.300781 52.667969 26.300781 52.667969 26.300781 L 52.667969 21.253906 L 46.96875 21.253906 L 46.96875 26.300781 C 46.96875 26.300781 12.113281 26.300781 10.21875 26.300781 C 8.320312 26.300781 0 26.589844 0 27.414062 C 0 28.238281 4.378906 28.238281 4.816406 28.433594 C 5.253906 28.628906 8.367188 29.503906 9.050781 29.351562 C 9.730469 29.207031 10.847656 28.722656 10.847656 28.722656 C 10.847656 28.722656 20.96875 31.246094 23.9375 31.050781 L 36.066406 31.050781 C 36.492188 31.050781 37.265625 33.300781 38.046875 36.058594 L 61.589844 36.058594 C 62.371094 33.300781 63.144531 31.050781 63.570312 31.050781 L 75.703125 31.050781 C 78.667969 31.246094 88.789062 28.722656 88.789062 28.722656 C 88.789062 28.722656 89.90625 29.207031 90.585938 29.351562 C 91.269531 29.503906 94.382812 28.628906 94.820312 28.433594 C 95.257812 28.238281 99.636719 28.238281 99.636719 27.414062 C 99.636719 26.589844 91.320312 26.300781 89.417969 26.300781 Z M 89.417969 26.300781 "/>
<path style=" stroke:none;fill-rule:nonzero;fill:rgb(95.686275%,58.431373%,54.901961%);fill-opacity:1;" d="M 38.796875 32.878906 C 38.339844 31.773438 37.265625 31.050781 36.066406 31.050781 C 36.492188 31.050781 37.265625 33.300781 38.046875 36.058594 L 40.101562 36.058594 Z M 38.796875 32.878906 "/>
<path style=" stroke:none;fill-rule:nonzero;fill:rgb(95.686275%,58.431373%,54.901961%);fill-opacity:1;" d="M 46.96875 26.300781 C 46.96875 26.300781 51.5 26.203125 51.890625 21.253906 L 46.96875 21.253906 Z M 46.96875 26.300781 "/>
<path style=" stroke:none;fill-rule:nonzero;fill:rgb(66.666667%,11.764706%,11.764706%);fill-opacity:1;" d="M 46.929688 10.777344 C 46.308594 12.421875 47.421875 12.84375 46.800781 14.488281 C 46.179688 16.132812 45.0625 15.710938 44.441406 17.355469 C 43.816406 19 44.933594 19.421875 44.304688 21.066406 C 44.285156 21.128906 44.265625 21.183594 44.238281 21.234375 C 43.484375 22.957031 41.484375 23.761719 39.722656 23.097656 C 37.960938 22.4375 36.996094 20.511719 37.578125 18.722656 C 37.589844 18.667969 37.613281 18.609375 37.632812 18.554688 C 38.257812 16.910156 39.375 17.328125 39.996094 15.679688 C 40.621094 14.035156 39.503906 13.617188 40.128906 11.972656 C 40.75 10.332031 41.867188 10.75 42.492188 9.105469 Z M 46.929688 10.777344 "/>
<path style=" stroke:none;fill-rule:nonzero;fill:rgb(100%,20%,27.058824%);fill-opacity:1;" d="M 57.140625 14.292969 L 50 18.167969 L 42.488281 14.292969 C 42.488281 14.292969 41.460938 10.917969 42.007812 8.894531 C 42.554688 6.871094 44.25 6.667969 44.25 6.667969 C 44.25 6.667969 44.816406 3.550781 50.125 3.550781 C 55.433594 3.550781 59.632812 6.972656 57.140625 14.292969 Z M 57.140625 14.292969 "/>
<path style=" stroke:none;fill-rule:nonzero;fill:rgb(89.019608%,15.686275%,15.686275%);fill-opacity:1;" d="M 42.007812 8.894531 C 41.460938 10.917969 42.488281 14.292969 42.488281 14.292969 L 46.21875 16.21875 L 46.535156 15.886719 L 46.535156 10.59375 C 45.285156 9.625 43.84375 7.945312 44.25 6.667969 C 44.25 6.667969 42.554688 6.871094 42.007812 8.894531 Z M 42.007812 8.894531 "/>
<path style=" stroke:none;fill-rule:nonzero;fill:rgb(95.686275%,58.431373%,54.901961%);fill-opacity:1;" d="M 44.421875 15.589844 C 44.421875 15.589844 43.726562 13.902344 42.488281 14.292969 C 41.25 14.683594 42.519531 18.339844 44.933594 18.570312 Z M 44.421875 15.589844 "/>
<path style=" stroke:none;fill-rule:nonzero;fill:rgb(100%,68.235294%,63.137255%);fill-opacity:1;" d="M 55.203125 15.589844 C 55.203125 15.589844 55.902344 13.902344 57.140625 14.292969 C 58.378906 14.683594 57.109375 18.339844 54.695312 18.570312 Z M 55.203125 15.589844 "/>
<path style=" stroke:none;fill-rule:nonzero;fill:rgb(100%,81.176471%,76.078431%);fill-opacity:1;" d="M 55.378906 13.460938 C 55.308594 13.289062 55.25 13.042969 55.195312 12.757812 L 49.816406 11.203125 L 44.429688 12.757812 C 44.378906 13.042969 44.316406 13.289062 44.25 13.460938 C 43.929688 14.234375 43.53125 14.394531 43.476562 14.410156 C 43.472656 14.527344 43.472656 14.652344 43.472656 14.777344 C 43.472656 19.433594 46.308594 24.890625 49.8125 24.890625 C 53.316406 24.890625 56.15625 19.433594 56.15625 14.777344 C 56.15625 14.652344 56.15625 14.527344 56.148438 14.410156 C 56.097656 14.394531 55.695312 14.234375 55.378906 13.460938 Z M 55.378906 13.460938 "/>
<path style=" stroke:none;fill-rule:nonzero;fill:rgb(100%,68.235294%,63.137255%);fill-opacity:1;" d="M 45.652344 14.777344 C 45.652344 13.910156 45.753906 13.085938 45.9375 12.324219 L 44.429688 12.757812 C 44.378906 13.042969 44.316406 13.289062 44.25 13.460938 C 43.929688 14.234375 43.53125 14.394531 43.476562 14.410156 C 43.472656 14.527344 43.472656 14.652344 43.472656 14.777344 C 43.472656 19.433594 46.308594 24.890625 49.8125 24.890625 C 50.1875 24.890625 50.550781 24.832031 50.90625 24.714844 C 47.921875 23.742188 45.652344 18.9375 45.652344 14.777344 Z M 45.652344 14.777344 "/>
<path style=" stroke:none;fill-rule:nonzero;fill:rgb(100%,100%,100%);fill-opacity:1;" d="M 49.816406 10.347656 C 47.597656 10.347656 46.707031 9.644531 45.941406 9.644531 C 45.800781 9.644531 45.660156 9.671875 45.519531 9.726562 C 44.800781 10.011719 44.640625 11.667969 44.429688 12.757812 L 55.195312 12.757812 C 54.988281 11.667969 54.824219 10.011719 54.105469 9.726562 C 53.964844 9.671875 53.828125 9.644531 53.6875 9.644531 C 52.917969 9.644531 52.03125 10.347656 49.816406 10.347656 Z M 49.816406 10.347656 "/>
<path style=" stroke:none;fill-rule:nonzero;fill:rgb(92.156863%,94.117647%,95.294118%);fill-opacity:1;" d="M 48.605469 11.550781 C 48.605469 10.886719 49.148438 10.347656 49.816406 10.347656 C 47.597656 10.347656 46.707031 9.644531 45.941406 9.644531 C 45.800781 9.644531 45.660156 9.671875 45.519531 9.726562 C 44.800781 10.011719 44.640625 11.667969 44.429688 12.757812 L 49.816406 12.757812 C 49.148438 12.757812 48.605469 12.222656 48.605469 11.550781 Z M 48.605469 11.550781 "/>
<path style=" stroke:none;fill-rule:nonzero;fill:rgb(95.686275%,58.431373%,54.901961%);fill-opacity:1;" d="M 18.617188 94.1875 C 18.617188 94.1875 19.328125 97.488281 18.617188 98.585938 C 17.902344 99.683594 15.375 99.363281 14.011719 98.910156 C 12.648438 98.457031 9.792969 99.328125 7.199219 99.328125 C 4.605469 99.328125 2.917969 99.429688 2.917969 98.265625 C 2.917969 97.101562 13.296875 92.960938 13.296875 92.960938 Z M 18.617188 94.1875 "/>
<path style=" stroke:none;fill-rule:nonzero;fill:rgb(95.686275%,58.431373%,54.901961%);fill-opacity:1;" d="M 91.464844 92.417969 C 91.464844 92.417969 92.375 92.941406 92.566406 93.582031 C 92.761719 94.230469 92.632812 97.851562 93.28125 98.691406 C 93.601562 99.105469 94.863281 99.269531 96.066406 99.328125 C 97.375 99.390625 98.46875 98.359375 98.46875 97.054688 C 98.46875 96.53125 98.285156 96.019531 97.949219 95.609375 C 97.527344 95.09375 96.992188 94.277344 96.914062 93.390625 C 96.78125 91.902344 94.769531 90.835938 93.605469 89.71875 Z M 91.464844 92.417969 "/>
<path style=" stroke:none;fill-rule:nonzero;fill:rgb(61.176471%,40.784314%,88.235294%);fill-opacity:1;" d="M 38.042969 56.84375 C 38.042969 56.84375 19.65625 57.761719 16.089844 60.796875 C 12.519531 63.839844 16.214844 87.984375 13.296875 92.960938 C 13.296875 92.960938 14.921875 94.964844 18.617188 94.1875 C 18.617188 94.1875 23.351562 74.898438 23.351562 72.4375 C 23.351562 69.984375 22.378906 66.6875 22.378906 66.6875 C 22.378906 66.6875 31.914062 69.59375 40.804688 68.304688 C 49.6875 67.007812 57.082031 71.148438 62.144531 74.765625 C 67.203125 78.390625 71.03125 80.199219 72.847656 80.914062 C 74.664062 81.625 77.515625 85.4375 80.175781 86.796875 C 82.839844 88.152344 91.464844 92.421875 91.464844 92.421875 C 91.464844 92.421875 93.347656 91.476562 93.605469 89.71875 C 93.605469 89.71875 82.707031 79.167969 79.65625 77.355469 C 76.609375 75.542969 74.273438 74.054688 71.871094 71.921875 C 69.472656 69.789062 64.835938 60.578125 61.578125 56.839844 L 49.355469 52.394531 Z M 38.042969 56.84375 "/>
<path style=" stroke:none;fill-rule:nonzero;fill:rgb(54.901961%,29.803922%,81.960784%);fill-opacity:1;" d="M 18.488281 81.113281 C 16.476562 81.113281 14.8125 79.664062 14.476562 77.757812 C 14.585938 84.265625 14.648438 90.65625 13.296875 92.960938 C 13.296875 92.960938 14.921875 94.964844 18.617188 94.1875 C 18.617188 94.1875 20.84375 85.125 22.242188 78.632812 C 21.621094 80.089844 20.175781 81.113281 18.488281 81.113281 Z M 18.488281 81.113281 "/>
<path style=" stroke:none;fill-rule:nonzero;fill:rgb(54.901961%,29.803922%,81.960784%);fill-opacity:1;" d="M 83.320312 85.390625 C 82.195312 86.511719 80.535156 86.769531 79.15625 86.171875 C 79.496094 86.410156 79.839844 86.625 80.175781 86.796875 C 82.839844 88.152344 91.464844 92.421875 91.464844 92.421875 C 91.464844 92.421875 93.347656 91.480469 93.605469 89.71875 C 93.605469 89.71875 88.011719 84.304688 83.71875 80.5625 C 84.765625 82.03125 84.636719 84.074219 83.320312 85.390625 Z M 83.320312 85.390625 "/>
<path style=" stroke:none;fill-rule:nonzero;fill:rgb(100%,90.980392%,32.941176%);fill-opacity:1;" d="M 59.570312 48.292969 C 59.226562 46.828125 59.226562 45.304688 59.578125 43.839844 C 60.066406 41.792969 60.828125 38.691406 61.578125 36.058594 L 61.515625 35.972656 C 59.621094 33.351562 58.789062 30.109375 59.1875 26.898438 L 59.261719 26.300781 L 55.785156 26.300781 L 55.308594 29.332031 C 55.082031 30.796875 54.230469 32.085938 52.976562 32.878906 C 52.015625 33.484375 50.90625 33.742188 49.816406 33.648438 C 48.722656 33.742188 47.609375 33.484375 46.648438 32.878906 C 45.394531 32.085938 44.542969 30.796875 44.316406 29.332031 L 43.84375 26.300781 L 40.363281 26.300781 L 40.4375 26.898438 C 40.839844 30.109375 40.007812 33.351562 38.109375 35.972656 L 38.046875 36.058594 C 38.800781 38.691406 39.5625 41.792969 40.050781 43.839844 C 40.398438 45.304688 40.398438 46.828125 40.058594 48.292969 L 38.042969 56.84375 C 38.042969 56.84375 40.769531 61.503906 49.820312 61.503906 C 58.871094 61.503906 61.578125 56.84375 61.578125 56.84375 Z M 59.570312 48.292969 "/>
<path style=" stroke:none;fill-rule:nonzero;fill:rgb(100%,81.176471%,6.666667%);fill-opacity:1;" d="M 41.609375 59.78125 L 43.46875 47.667969 C 43.707031 46.042969 43.511719 44.382812 42.898438 42.859375 C 45.429688 42.9375 47.074219 41.566406 47.074219 41.566406 C 44.273438 42.046875 42.050781 40.792969 41.183594 38.683594 L 39.269531 34.027344 C 39.105469 34.363281 38.929688 34.695312 38.738281 35.019531 C 38.722656 35.042969 38.707031 35.066406 38.691406 35.09375 C 38.605469 35.230469 38.523438 35.363281 38.4375 35.496094 C 38.332031 35.65625 38.226562 35.8125 38.113281 35.964844 C 38.109375 35.96875 38.109375 35.972656 38.109375 35.972656 L 38.046875 36.058594 C 38.199219 36.507812 39.179688 40.21875 39.183594 40.3125 C 39.375 41.070312 39.558594 41.800781 39.71875 42.476562 C 39.839844 42.964844 39.949219 43.425781 40.050781 43.839844 C 40.132812 44.195312 40.199219 44.5625 40.246094 44.929688 C 40.4375 45.980469 40.179688 48.03125 40.058594 48.292969 L 38.042969 56.84375 C 38.042969 56.84375 38.992188 58.453125 41.609375 59.78125 Z M 41.609375 59.78125 "/>
</g>
</svg>
